<svg width="80" height="80" fill="none" xmlns="http://www.w3.org/2000/svg"><g clip-path="url(#clip0)"><path d="M45.566 56.323l8.498-7.982-3.374-.626c-1.628-.328-2.8-2.217-2.8-3.878v-7.401H32.11v7.401c0 1.661-1.171 3.55-2.8 3.878l-3.373.626 8.497 7.982a8.13 8.13 0 0011.132 0z" fill="#FFE7CF"/><path d="M44.068 36.436v11.223c0 1.661 1.172 3.55 2.8 3.877l2.908.833 4.288-4.028-3.374-.626c-1.629-.328-2.8-2.217-2.8-3.878v-7.401h-3.822z" fill="#F4D5BA"/><path d="M49.85 47.309L40 54.67l-9.85-7.362a2.077 2.077 0 00-1.844-.325l-16.548 4.993a4.903 4.903 0 00-3.417 3.869L4.695 77.19A2.405 2.405 0 007.065 80h65.87a2.405 2.405 0 002.37-2.81l-3.646-21.344a4.903 4.903 0 00-3.417-3.87l-16.548-4.992a2.078 2.078 0 00-1.844.325z" fill="#24D9DE"/><path d="M28.306 46.984l-2.847.859 6.283 8.792a1.815 1.815 0 002.187.615L40 54.671l-9.85-7.362a2.077 2.077 0 00-1.844-.325zM46.071 57.25a1.815 1.815 0 002.187-.615l6.283-8.792-.015-.005-2.832-.854a2.077 2.077 0 00-1.844.325L40 54.67l6.071 2.579z" fill="#D0D1D2"/><path d="M40 54.67l-4.774 2.03 2.79 3.244h3.967l2.791-3.245L40 54.671zm1.983 5.274h-3.966L34.354 80h11.292l-3.663-20.056z" fill="#F9644B"/><path d="M40 76.276S28.937 46.793 28.306 46.984l-16.548 4.993a4.903 4.903 0 00-3.417 3.869L4.695 77.19A2.405 2.405 0 007.065 80h65.87a2.405 2.405 0 002.37-2.81l-3.646-21.344a4.903 4.903 0 00-3.417-3.87l-16.548-4.992C51.062 46.794 40 76.276 40 76.276z" fill="#E1EFFB"/><path d="M75.305 77.19l-3.646-21.344a4.904 4.904 0 00-3.417-3.87l-16.548-4.992c-.172-.052-1.114 2.09-2.396 5.234L61.3 55.84a2.498 2.498 0 011.741 1.97L66.831 80h6.103a2.405 2.405 0 002.371-2.81z" fill="#CADDEA"/><path d="M57.592 63.33c-.667 0-1.207-.54-1.207-1.206V48.425a8.544 8.544 0 00-8.148-8.549 1.207 1.207 0 11.114-2.41 10.954 10.954 0 0110.447 10.959v13.699c0 .666-.54 1.206-1.206 1.206zM22.409 54.4a1.207 1.207 0 01-1.207-1.208v-4.767a10.96 10.96 0 0110.416-10.959 1.207 1.207 0 11.12 2.41 8.549 8.549 0 00-8.123 8.549v4.767c0 .667-.54 1.207-1.206 1.207z" fill="#44798C"/><path d="M57.578 67.955a5.037 5.037 0 100-10.075 5.037 5.037 0 000 10.075z" fill="#1785B8"/><path d="M57.578 65.136a2.22 2.22 0 100-4.438 2.22 2.22 0 000 4.438z" fill="#E1EFFB"/><path d="M26.4 72.803h-1.505a1.207 1.207 0 110-2.414H26.4a.656.656 0 00.652-.704l-.88-11.283a3.68 3.68 0 00-.282-1.159c-.557-1.315-1.878-2.161-3.37-2.161h-.028l-.199.001c-1.535.011-2.907.946-3.416 2.326-.117.319-.19.653-.216.993l-.88 11.283a.655.655 0 00.652.704h1.505a1.207 1.207 0 110 2.414h-1.505a3.076 3.076 0 01-2.252-.984 3.075 3.075 0 01-.806-2.322l.88-11.283c.043-.56.163-1.112.357-1.639.854-2.318 3.13-3.887 5.664-3.905l.2-.002h.044c2.464 0 4.656 1.423 5.592 3.634.258.608.415 1.252.467 1.912l.879 11.283a3.076 3.076 0 01-.807 2.322 3.076 3.076 0 01-2.251.984z" fill="#2C5871"/><path d="M26.076 25.548v-4.516H23.32a2.372 2.372 0 00-2.371 2.372v1.834a2.371 2.371 0 002.371 2.372h2.755v-2.062zm30.603-4.516h-2.755v6.578h2.755a2.371 2.371 0 002.371-2.372v-1.834a2.371 2.371 0 00-2.371-2.372z" fill="#F4D5BA"/><path d="M50.125 5.653C47.75 3.608 44.411 3.741 40 3.691c-4.41.05-7.75-.083-10.125 1.962-3.03 2.609-4.671 6.483-4.671 10.481v11.622c0 3.998 5.025 14.604 14.796 14.604 9.77 0 14.796-10.605 14.796-14.604V16.134c0-3.998-1.641-7.872-4.67-10.48z" fill="#FFE7CF"/><path d="M50.125 5.653c-.943-.812-2.04-1.28-3.294-1.553v23.657c0 3.413-3.663 11.64-10.814 13.974 1.226.4 2.553.629 3.983.629 9.771 0 14.796-10.605 14.796-14.604V16.134c0-3.998-1.641-7.872-4.67-10.48z" fill="#F4D5BA"/><path d="M48.901 0H31.1a8.294 8.294 0 00-8.295 8.294V21.91s2.284-.051 3.752 1.401a.486.486 0 00.825-.349v-11.14a3.666 3.666 0 013.666-3.667h3.331c.874 0 1.72.302 2.397.855l.327.268a4.578 4.578 0 005.796 0l.326-.268a3.787 3.787 0 012.397-.855h3.332a3.666 3.666 0 013.666 3.666v11.142c0 .43.52.65.825.348 1.467-1.452 3.751-1.4 3.751-1.4V8.293A8.294 8.294 0 0048.901 0z" fill="#FFB125"/><path d="M48.901 0h-7.965a8.293 8.293 0 018.291 8.167 3.666 3.666 0 013.392 3.654v11.142c0 .43.52.65.825.348 1.468-1.452 3.752-1.4 3.752-1.4V8.293A8.294 8.294 0 0048.9 0z" fill="#FF901D"/></g><defs><clipPath id="clip0"><path fill="#fff" d="M0 0h80v80H0z"/></clipPath></defs></svg>