<svg width="80" height="80" fill="none" xmlns="http://www.w3.org/2000/svg"><path d="M56.5 79.371c8.108 0 14.68-6.573 14.68-14.682 0-8.108-6.572-14.682-14.68-14.682-8.11 0-14.683 6.574-14.683 14.682 0 8.109 6.574 14.682 14.682 14.682z" fill="#F9F3F1"/><path d="M66.88 75.07c-5.733 5.734-15.029 5.734-20.762 0a13.802 13.802 0 01-.596-.634c5.733 4.08 13.74 3.549 18.88-1.592 5.524-5.524 5.726-14.356.603-20.122a14.67 14.67 0 011.875 1.585c5.735 5.733 5.735 15.03 0 20.764z" fill="#EFE2DD"/><path d="M38.687 6.559c2.872-5.434 9.606-7.51 15.04-4.637L74.07 12.678c5.433 2.873 7.509 9.607 4.636 15.04s-9.606 7.51-15.04 4.637L43.324 21.598c-5.433-2.872-7.509-9.606-4.636-15.04z" fill="#FEC165"/><path d="M78.708 27.718c-.096.18-.195.358-.303.532 1.203-4.848-.991-10.07-5.605-12.51L52.457 4.985c-5.253-2.777-11.72-.93-14.737 4.105.212-.86.533-1.71.966-2.53 2.873-5.435 9.607-7.51 15.04-4.637l20.345 10.756c5.433 2.872 7.509 9.606 4.637 15.04z" fill="#FDB441"/><path d="M53.495 26.976L63.9 7.3l10.172 5.378c5.433 2.873 7.509 9.607 4.636 15.04s-9.606 7.51-15.04 4.636l-10.172-5.378z" fill="#6BD9E7"/><path d="M78.708 27.718c-.054.102-.11.201-.166.301a5.81 5.81 0 01-.137.23c1.203-4.847-.991-10.07-5.605-12.508l-10.444-5.523 1.542-2.917 10.173 5.377c5.433 2.872 7.509 9.606 4.637 15.04z" fill="#2ED1E2"/><path d="M35.06 29.971c4.383 4.308 4.444 11.354.136 15.738l-16.13 16.413c-4.309 4.383-11.354 4.444-15.738.136s-4.445-11.354-.137-15.737l16.131-16.413c4.308-4.384 11.354-4.445 15.738-.137z" fill="#7ACAA6"/><path d="M3.328 62.259a8.65 8.65 0 01-.423-.443c4.3 2.541 9.932 1.934 13.59-1.788l16.13-16.412c4.166-4.239 4.247-10.963.287-15.296.763.45 1.487 1.001 2.148 1.651 4.384 4.308 4.444 11.354.136 15.738l-16.13 16.413c-4.308 4.383-11.354 4.445-15.738.137z" fill="#57BE92"/><path d="M11.257 38.314L27.13 53.915l-8.066 8.207c-4.308 4.383-11.353 4.444-15.737.136s-4.445-11.354-.137-15.737l8.066-8.207z" fill="#EE6161"/><path d="M3.328 62.259a10.958 10.958 0 01-.423-.443c4.3 2.541 9.932 1.934 13.59-1.788l8.281-8.426 2.354 2.313-8.064 8.208c-4.308 4.382-11.354 4.444-15.738.136z" fill="#E94444"/><path d="M61.767 71.128c-.3 0-.599-.114-.828-.343L50.403 60.25a1.17 1.17 0 111.656-1.656L62.595 69.13a1.17 1.17 0 01-.828 2z" fill="#CDBFBA"/></svg>