<svg width="511" height="115" fill="none" xmlns="http://www.w3.org/2000/svg"><path opacity=".6" d="M.014 65.068h131.109l27.606-62.571c.9-2.055 3.422-3.04 5.621-2.194 1.127.434 1.954 1.266 2.364 2.25l.014-.005 42.031 99.253 36.932-58.497c1.215-1.917 3.861-2.554 5.907-1.422.67.369 1.197.887 1.552 1.478l21.713 31.144 31.038-30.877c1.631-1.621 4.36-1.7 6.092-.176.328.29.596.614.803.965h.005l12.397 20.683h185.753a272.036 272.036 0 01-.628 8.083H322.676v-.01c-1.506 0-2.974-.743-3.765-2.06l-10.762-17.957-30.761 30.599h-.005a4.102 4.102 0 01-.794.619c-1.995 1.21-4.665.684-5.958-1.183l-21.052-30.193-37.814 59.892a4.202 4.202 0 01-2.203 1.824c-2.217.817-4.73-.199-5.603-2.273l-41.352-97.645-24.512 55.554c-.559 1.63-2.19 2.809-4.115 2.809H.628A242.075 242.075 0 010 65.075l.014-.007zM253.155 43.35a3.818 3.818 0 01-.032 4.05l.032-4.05z" fill="#95DCEF"/></svg>