<svg width="81" height="80" fill="none" xmlns="http://www.w3.org/2000/svg"><g clip-path="url(#clip0)"><path d="M11.75 37.242l4.392 20.207a40.011 40.011 0 01-1.634 22.548h51.989a40.01 40.01 0 01-1.635-22.548l4.393-20.207L80.5 27.587v-6.503c0-6.311-5.116-11.427-11.427-11.427H50.152V.002H30.844v9.655h-18.91C5.621 9.654.502 14.767.5 21.078v6.509l11.25 9.655z" fill="#F8C09C"/><path d="M3.263 19.312H77.74V60.69H3.264V19.312z" fill="#A9BFD1"/><path d="M6.021 22.07h68.962v35.86H6.021V22.07z" fill="#7D8F9F"/><path d="M6.017 22.07v10.254l5.728 4.918 4.393 20.207c.034.159.054.32.087.482h48.547c.034-.162.053-.323.087-.482l4.396-20.207 5.724-4.918V22.07H6.017z" fill="#EF937D"/><path d="M35.809 38.267l-1.633-2.223 4.943-3.637V22.07h2.758v11.034a1.379 1.379 0 01-.563 1.103l-5.505 4.059z" fill="#F6F6E7"/><path d="M39.685 34.216l1.632-2.222 5.517 4.051-1.632 2.223-5.517-4.052z" fill="#F6F6E7"/><path d="M48.954 49.655h2.4c1.008 0 1.984.354 2.758.999l1.051.876a3.673 3.673 0 006.024-2.822 24.348 24.348 0 00-7.134-17.22 13.318 13.318 0 00-9.417-3.9V45.34a4.314 4.314 0 004.314 4.314h.004zm-16.904.024h-2.4a4.317 4.317 0 00-2.758 1l-1.051.875a3.673 3.673 0 01-6.032-2.821 24.352 24.352 0 017.132-17.22 13.32 13.32 0 019.42-3.902v17.755c0 2.38-1.93 4.311-4.31 4.313z" fill="#DD527C"/><path d="M30.843 44.138h-2.758v-4.137c0-.367.145-.718.404-.977l2.758-2.758 1.95 1.951-2.354 2.355v3.566z" fill="#B81A48"/><path d="M25.33 38.621h4.138v2.759H25.33v-2.76zm27.581 5.517h-2.758v-3.566l-2.345-2.355 1.945-1.951 2.758 2.758c.26.26.405.61.404.977l-.004 4.137z" fill="#B81A48"/><path d="M51.536 38.621h4.138v2.759h-4.138v-2.76z" fill="#B81A48"/></g><defs><clipPath id="clip0"><path fill="#fff" transform="translate(.5)" d="M0 0h80v80H0z"/></clipPath></defs></svg>